<?xml version="1.0" encoding="UTF-8"?>
<svg id="Calque_2" data-name="Calque 2" xmlns="http://www.w3.org/2000/svg" viewBox="0 0 626.36 85.03">
  <defs>
    <style>
      .cls-1 {
        fill: #fff;
      }
    </style>
  </defs>
  <g id="Calque_1-2" data-name="Calque 1">
    <path class="cls-1" d="M625.55,41.72c-1.87-3.17-7.23-4.83-16.69,0-9.2,4.68-37.18,18.94-41.49,16.39-7.75-4.59-11.15-17.35-12.6-22.8l-.25-.91c-.08-.3-.16-.62-.25-.96-1.3-5.12-3.71-14.66-22.31-13.59-11.2.65-26.18,9.01-34.85,19.46-3.28,3.95-5.29,7.79-5.95,11.3-14.31-18.03-37.47-11.49-47.66-8.62-1.08.3-2.23.63-3.15.85,3.58-2.32,22.28-15.04,18.61-24.73-1.58-4.18-4.35-7.07-8.22-8.6-6.8-2.68-17.07-.94-28.91,4.91-7.37,3.64-15.28,11.29-22.27,18.04-7.3,7.06-14.85,14.37-18.32,13.24-1.19-.39-2.04-1.97-2.52-4.67-.34-2.31-.59-4.74-.86-7.31-1.44-13.87-3.23-31.12-21.81-33.08-7.67-.81-17.54,11.13-27.99,23.78-9.41,11.38-20.07,24.28-27.26,24.28-9.51,0-16.47-14.92-20.63-27.43l-.1-.29c-3.41-10.23-11.25-16.91-23.95-20.42-16.12-4.45-36.27,19.54-52.47,38.81-7.2,8.57-16.16,19.24-18.71,18.52-.28-.08-.65-.64-.85-1.99-1.73-11.84-5.1-26.02-15.86-30.56-9.41-3.97-22.38-.04-39.59,12,.94-11.93-2.22-24.86-10.47-27.34-2.59-.78-9.23-1.29-15.04,10.77-.64,1.32-1.75,3.9-3.16,7.16-2.09,4.83-5.86,13.54-8.3,18.23.37-1.92,1.03-4.82,2.18-9.22,3.86-14.79-.36-21.02-4.58-23.65-10.56-6.57-32.08,2.31-45.97,14.3-.42.36-42.18,37.6-43.11,44.21-.9,6.41,1.41,9.2,2.91,10.31,5.59,4.26,18.6-7.26,37.83-25.33,9.71-9.13,18.88-17.75,23.64-19.78,1.66-.71,2.43-.63,2.62-.47.24.2.5,1.18-.04,3.55-3.17,13.88-1.66,27.85,3.96,36.45,2.96,4.55,6.98,7.42,11.6,8.31.71.14,1.4.2,2.07.2,7.31,0,12.02-7.76,15.54-13.56,1.74-2.86,3.71-6.11,4.89-6.25.07,0,.28-.03.69.38,11.73,11.86,27.76,0,39.47-8.67,4.96-3.67,10.09-7.47,12.17-7.05,2.33.46,3.95,4.67,5.83,9.55,3.28,8.51,7.76,20.17,20.54,21.45,9.55.96,18.12-6.18,25-11.91,3.73-3.11,7.26-6.05,9.62-6.42,2.17-.34,5.33.35,8.99,1.15,5.62,1.23,12.61,2.75,20.05,1.46,12.17-2.11,17.68-8.79,21.48-15.46,5.85,13.57,13.78,21.15,23.62,22.52,6.74.95,24.97-.23,48.73-31.45,1.09-1.47,2.17-3.06,3.22-4.59,2.64-3.87,5.91-8.68,7.89-8.68.01,0,.03,0,.04,0,.54.02,1.11.52,1.68,1.49,1.93,3.28,2.69,9.8,3.49,16.71,1.65,14.21,3.7,31.89,17.64,32.96,7.49.56,16.14-8.47,23.76-16.45,4.26-4.47,9.08-9.52,11.09-9.52.04,0,.07,0,.1,0,.09,0,.24.02.43.32,13.47,20.82,35.22,12.16,46.91,7.51,2.7-1.08,5.26-2.09,6.29-2.09h.02c9.24.13,15.43,6.8,21.42,13.25,3.84,4.14,7.47,8.05,11.68,9.85,12.23,5.23,23.61-5.93,31.92-14.08,4.05-3.98,7.88-7.73,10.29-8.04,2.56-.34,4.33,2.65,6.99,7.55,3.18,5.85,7.15,13.13,15.37,14.46,18.72,3.03,40.51-12.29,50.98-19.65,1.14-.8,2.13-1.49,2.95-2.05,9.67-6.53,12.34-14,9.98-18.01ZM512.84,48.28c.07-1.43,4.07-6.49,8.98-9.46,2.26-1.37,3.75-1.61,4.23-1.24.2.16.62.48.21,1.63-1.28,3.58-8.55,9.1-13.01,9.1-.05,0-.1,0-.16,0-.11,0-.2-.01-.26-.02ZM426.12,29.35c.11-1.14,4.18-4.68,8.63-6.05,1.87-.57,3.28-.53,3.67.12.29.48.57,1.25-.37,2.45-1.99,2.54-7.99,4.75-11.63,3.6-.16-.05-.25-.1-.3-.13ZM252.57,28.95c-2.43,4.2-8.34,8.59-10.52,8.4-.24-.02-.27-.08-.31-.2-.91-2.48,4.17-9.5,8.49-11.75.79-.41,1.45-.62,1.97-.62.47,0,.83.17,1.06.51.49.71.24,2.04-.69,3.66Z"/>
  </g>
</svg>