<?xml version="1.0" encoding="UTF-8"?>
<svg id="Calque_1" xmlns="http://www.w3.org/2000/svg" version="1.1" viewBox="0 0 1132 697">
  <!-- Generator: Adobe Illustrator 30.5.1, SVG Export Plug-In . SVG Version: 2.1.4 Build 3)  -->
  <defs>
    <style>
      .st0 {
        fill: #fff;
      }
    </style>
  </defs>
  <g id="_x37_jCzhQ">
    <g>
      <path class="st0" d="M682.2,322.1c.6,6.6-11,1.6-16.6,4.2-1.4.6-8.3,7.6-6.7,9.1,8.7,1.5,13-12.6,21.6-7.5,2.5,1.5,6.2,20.7,9.2,25.7,2.8,4.6,9.8,4,11.7,10,.4,28.6-14,59-3.7,86.5l65.7,4.9c3.2-9.4,1-19.4,1.6-29.1.6-9.2,3.1-20.6,2.5-29.8-.4-5.8-4.8-10-4.1-14.7.6-4.4,7.2-14.2,6.9-20.7,3-1.9,17,2.8,21,4.3,1.9.7,1.9,3.1,3.3,3.7,4.8,2.1,12.7,1,15.3,6.7l-11.4,1.8c.4,12.7-3.4,19.3-16.7,14.8-2.9,2.1-5.6,54.8-6.7,63l14.1-6.7c3.3,0,6.9,6.2,10.2,8.1,5.9,3.5,63.7,11,74.5,11.8,3.3.2,9.9.8,12.4-.8l20-30c-2.5-7.6.5-13.9,0-21.5-.7-9.6-4.4-37.5-6.6-46.2-1.2-4.5-15-5.7-3.4-21.9,5.7-8,15.3-13.8,23.2-4.9,11.1,12.5-.9,20-4.1,29.8-2.1,6.4.6,41.1,4.1,46.5,2.1,3.3,7.3,4.9,8.3,7.1,2.6,5.5,5.4,19,5.9,25.2l37.8,39.4c43.5,10,102,34.5,130.6,69.9,5.2,6.4,23.2,29.2,25.9,35.1,15.2,32.8-16.3,44.9-41.5,53.3-75.4,24.9-207.6,33.3-288.6,32.5-2.9,0-6.2-1.6-9.4-1l-.8-6.6-11,2.4.2,4.2c-9-3.7-19.2-3-29-1.6-119.5,17.3-245.1,24-365.2,11.3-36.9-3.9-72.8-11.7-109.5-16.5-18.1-2.4-38.7-6.8-56.5-8.1-51.1-3.8-169.1-13.5-198.2-62.6-11.9-20.1-11.3-32.5,5.9-48.7,3-2.8,29.6-17.3,25.3-21.5-7.6,3.7-16.6,4.9-24.4,7.9-9.2,3.6-15.5,12.8-25.4,15.3,6.4-13.1,18.8-21.1,31.6-27.3,36.2-17.7,78.2-21.7,116.3-33.1,8-2.4,14-15.7,14.8-23.5.7-6.4-3-16.4-2.9-23.1,0-6.3,4.4-14.5,4.5-18.2,0-3.6-3.4-7.3-3.1-11.6.3-3.6,3.7-6.3,3.4-11.7-.3-7.6-7.2-17.1-9.3-24-6.9-22.7,2.3-40.2,27.4-39.9-1.5,6.6,4,10,5.8,14.9,6.1,16.2-3.5,14.9-9.5,25.4-6.3,11.1-3.6,26.7.5,38.4.7,2.1,2.3,7.2,4.9,7.6,1.7-30.3,34-6.7,29.8,15.7-1,5.6-13.1,23.1-12.8,26.3.2,2.3,3.4,7.7,4.5,10.3,6.4,4.3,61.5-8.9,72.9-9.4l-3.2-55.5,4.8-36.1c-1.1-4.3-11.2-6.6-13.5-11.5-4.1-8.9,1.5-35.1,11.6-37.5,9.7-2.4,20.6,15.4,25,22.4-9.4,20.7-15.8,44.1-14.6,67,23.1-13,10.9,29.9,11.5,42.3,0,1.7,1,7.4,2.8,7.6l76.2-10.1,108.8-7.6,28.1-58.1-3.3-1.6c5.2-4.4,7.1-10.9,15-8.4,14.5,4.4,4.1,28.5,6.6,30.8l8.1-2.7c-1.1-13.7,3.5-27.1.2-40.4-5.1.9-8.9,5.8-14.5,6.3-12.2,1.1-23-6.2-23.1-19-.1-23.9,34.4-47.8,50.9-24.6,9.7,13.6-3.3,18-3.3,19.9,0,.6,4,2.9,4.7,5.4,3.9,13-5.4,51.6-6.1,67.9-.2,3.7-.6,19,.5,20.6l106.1,1.3,12.7-33c-5.6.2-11.4-.6-17,.4-9.5,1.6-22,15.5-26.2-1.2,3.1-3,6.9-13.6,8.9-15.4,8.2-7.5,33.9-3.3,40.8-13.1,10.5-14.9,2.1-29.4-3.2-43.7-44.7,9.1-21.4-34.4,8.4-23.3ZM544.4,352c4-11.4-1.2-18.1-13.4-14.2-10,3.2-22,34.4-3.2,26.7l1.9-11.4,4.7-3.7,10,2.7ZM504.6,453.2c12.7,1.5,24.1,2.3,28.8-12,2.3-7.1-2.5-15.8-8.9-18.7-9.8-4.4-21.5,29.2-19.9,30.8ZM933.5,470.9c-3.3-4.3-5.3-10.2-10.6-12.7-.3,4.8-5.1,13.8-1.9,17.6l20.1,5.7c2.5-2.2-6.8-9.4-7.7-10.6ZM653.8,472.9c1-.9,3-8.4-.8-9.5-3-.9-18,.1-22.9-.2-12.1-1-15-.3-26.6,0-13.5.5-32.2-2.6-44.5-1.3-2.6.3-6,1.7-7.8,3.8,5.3-.3,9.3,6.1,12.8,7.1,4.6,1.3,10.2-.6,14.3.4,1.3.3,1.1,3.2,2.2,3.4,2.2.3,6.3-1.8,9.7-1.8,9.2-.1,60.3,1,63.7-1.8ZM524.5,463.2l-25.5,3.3c-4.6,10.6,14.4,5.6,21.1,6.7l4.4-10ZM337,479.8l143.6-6.6c2.2-.1,4.6-1.8,4.1-4.1-1.1-5.1-16.7-1.4-20.5-1.5-15-.5-15.7,0-30.4,1.7-24.7,2.9-51.7,2.5-77.5,5.8-4.5.6-9.9,1.3-14.4,2.3-1.8.4-5.4.1-4.9,2.5ZM747,469.9l-51.4-5c-6.6,15.8,24.7,4,33.6,7.6l17.8-2.6ZM788.5,481.5c.7,3.2,3.3,2.9,5.8,3.3,19.2,3.1,40.4,4.8,59.6,6.7,8.1.8,34.4,8.7,23-6.5-16-2.1-32.9-6.8-49.2-6.3-4.3.1-9.1,2.5-13.6,2.7-8.6.4-17.1-1.2-25.7,0ZM647.4,484.8l-88.5,3.7c-12.1,7.5-2.2,15.2-1.6,20.6,1.5,12.6-1.7,33.1-1.2,46.3.5,14.4,5.1,27.3,7.2,40.6,1.6,10.2,1.3,20.8,4.5,30.9-.3,8.6-11.4,12.9-18,8.7-5-3.1-7.8-40.3-8.6-48.7-.3-3.6,1.3-6.8,1-9.6-2.1-20.3-6.5-40.4-7.7-60.9-3-.7-3.3.9-4.7,2.8-14.3,18.7-18.4,47.7-31.9,62.7-5.2,5.8-13.5,8.7-16.3-.3-2.8-9.2,14.1-34,18.3-44.2,5.3-13,8.7-28.9,14.3-42.2l-2.3-3.5-195.5,15c-2.8.9-3.9,4.6-4.3,7.3-2.3,14.3,2.1,34.9,5.7,48.9,1.1,4.2,6.2,8,1.5,13.4-15.3,1.8-9.8-10-16.6-16.6-16.8,16-19.4-7-20.5-20.8-.7-9,.6-18.2-.2-27.2-.9-1.6-14.6-.2-17.1,0-5.4.6-44.1,5.8-45.9,7.2-2.8,2.1-.9,7.7-2.4,10.9-1.1,2.3-5.4,2.5-5.9,4.4-.3,1.3,0,24,.4,25.9,3.2,15.3,17.9,39.5,29.5,50.2,5.4,5,11.6,3.4,10.1,14.6-15.3,8-27.6-18.3-37.4-27.1-6,4.3-9.4,11.4-16.6,3.3,0-21,2.6-39.1-5.6-59.1-.8-6.6-1.1-8.5,3.3-13l-2.9-5.8-7.3,2.7c.2,7.1,0,14.2,0,21.3.5,21.5,1.4,42.9,3.5,64.6.5,5.4,7.2,19.5-1.3,22.4-10.2,3.4-14.1-8.8-12.1-17l-3.4-1.9,3.2-1.5c-1.5-6-5.5-12.8-6.1-18.8-.3-3,1.5-5.8.9-9.1-1.1-6.1-11.3-53.8-14.1-54.5-11.3-2.3-94.7,20.4-95,25.8,3.1,2.9,3.5,9.4,5.4,12,3.4,4.7,28.2,19.6,34.5,22.7,10.7,5.2,24.2,6.8,31.3,16-25.4-1.4-52.4-13.9-70.6-31.5-3.3-3.2-11-14-13.6-14.7-7.7-2.1-24.6,10.8-23.7,20.3.7,7.5,25.5,23.6,32.8,27.1,5.8,2.8,15.8,4.1,20.8,7.4,2.6,1.7,3.8,5.7,5.5,6,3.2.7,14.6-.4,22,1.3,40.5,9.5,80.4,22.9,121.4,31.4,28.7,5.9,56.5,8.5,85.1,12.9,6.3,1,14.7,4.9,19.4,5.3,4,.4,16.4-4.3,26-4.2,51.1.6,102.9,5.2,154.5,6.4,79.3,1.8,169.3,6.6,247-4.8,59.5-8.7,186.4-32.3,230.1-72,17.8-16.1,20.3-40,6.4-59.6-15-21.1-51.1-20.7-74.5-26-1,1.1-.4,25.9,0,29.1.8,5.9,5.4,17.3,5,21.6-.4,4.3-5.5,3.9-6.5,6.9-1.2,3.6.9,8.5-1.1,12.2l-4.2,2.6c-14.8-1.3-10-34.4-11.9-44.6-.4-2.3-7.8-17.8-8.7-17.8-10.1,8.7-9,49.5-28.7,40.2-13.3-6.3,3.2-19.8,5.8-26.6,3.3-8.5,2.7-22.7,5.4-31.9l-90.3-11.4-4.5,15.2c4.6,3.2,10.5,4.9,14.2,9.5,2.6,3.3,16.5,30.9,17.9,35.2,1.7,5.6,1.1,11.4,3,16.9,3,8.6,19,43.9,18.2,49.8-.2,1.3-.7,2.5-1.6,3.6-3.2,4-9.9,3-12.7-.8-9.5-14.1-9.4-42.9-17.5-55.5-1.3-2-2.1-3.2-4.7-2.7-.8,8-10.4,6.5-14.9,2.4-5.6-5-7.1-21.8-15-25.7-2.5,13-1.7,25.5-1.6,39.1,0,3.1-1.2,6.1-1.1,8.5.2,8.7,8.6,34-6.1,31.8-8.9-1.3-6.1-8.8-7.2-13.1-2.9-11.7-5.6-21.5-5.3-33.9.3-11.1,1.9-21.5,11-28.5l4.5-52.1c-3.3-5.5-23.3-2.8-30-3.3-7.4-.6-16.4-4.5-21.7-5-4.4-.4-8.9,2.8-14,0-.4,4.3,1.7,8.2,1.8,12.5.7,22.6.3,38.6-2.7,61.3-.7,5.5,2.6,12.5-4.1,18.4-6.8,2.8-10.8-2.4-14.1-7.5-1.2,6.2-11.8,7.3-13.8,2.2l2.2-85.1c-2.6,2.1-4.2,4.7-5.6,7.6-7.2,14.5-10.1,45.7-11.8,62.9-.6,6.2,3.7,21.6-5.8,20.9-11.9-1-11.3-17.1-10.8-25.9.6-10.7,5.7-30.2,8.7-41,1.3-4.5,10.4-23.6,7.8-26.2ZM345.3,491.4h-34c-2.5,0-6.7,1.4-5.8,5h9.2c0,0,30.6-5,30.6-5ZM280.5,499.7l-5.8-5c-12.2.9-24.4,3.8-36.5,5-9.3.9-18.3-1.5-28.1,1.7-4.1,8.3,7.7,6.9,13.1,6.6,19-1.2,38.3-6.8,57.3-8.3ZM685.5,498.1c-1.6-1.7-3.2-.8-3.1,2.3.6,11.6-2.3,22.6-1.9,34.2l6.5-17.6-1.5-19ZM1070.6,547.9c.8-3.6-1.8-3.8-3.8-5.3-25.8-18.7-57.1-30.5-87.4-39.5,0,4.4-1.2,9.9,3.4,12.3,29.3,10.7,60.5,17.5,87.9,32.5ZM154.4,509.7c-14.2,1.9-27.9,6.2-41.4,10.8-10.4,3.6-26,8.4-33.2,15.7l74.7-16.6v-9.9ZM1066.8,555.1c-20.3-10.2-44.8-13.8-64.2-25.5.9,8,6.3,14.8,7.9,22.8,9.6,48.1-37.4,69.5-74.3,84.2-40.6,16.2-82.6,21.5-123.7,34.1-2.5.8-5-1.9-4.1,3.3,4.9.7,9.4-1.6,14.1-1.8,11.4-.3,90.2-1.9,93.5-5.3.8-.8-.2-3.4,1.4-4.7,5.6-4.4,21.1-4,27.8-5.1,31.1-5,62.1-10,92.3-18.9,21.3-6.3,91.2-28.4,61.4-61.4-4.9-5.5-25.8-18.7-32.1-21.8ZM786.8,533l-3.3.8c1.4,9.7,5.3,18,13.3,24-.9-9.2-5-17.4-10-24.9ZM1119.8,620.3c3.7-7.2,1.4-21-7.6-22.6-2.4,21.4-26.4,31.4-44.4,37.8-45.5,16.1-85.5,19.9-132.2,27.2-2.2.3-9,.6-9.4,3.1,41.8-2.6,85.9-6.8,126.5-17.1,12.7-3.2,61.7-17.8,67-28.3ZM156,649.1c-14.9-7-31.1-7.6-46.8-12.1-20.1-5.8-40-13.3-59.4-21.1-.7,3.3,1.5,4,3.8,5.3,5,3,20.9,9.1,27,11.2,20.3,7,44.7,9.8,63.2,19.6l12.3-2.9ZM541.1,685.7c-8.7-.5-17-2.9-25.7-3.3-24.8-1-51.2.4-76.3,0-3.9,0-7.8.3-11.7-.1-2.7-.3-7-6.2-9.2-.8-1.5,3.8,3.9,2.3,5.8,2.4,23.2,1.7,46.6,3.1,69.6,3.4,13.6.2,28.1.5,41.6,0,2,0,6.2,1.3,5.8-1.6Z"/>
      <path class="st0" d="M701.2,66.9c-3.8,11.2-15.4,3.4-23.5,5.5,2.1,3,7.3,4,9.5,6.3,1.9,2.1,13.3,18.7,14.4,21.3,2.3,5.4.8,10.4,1.9,13,2.1,5.2,19.1,19.6,11.7,25.1-10.5,7.9-15.2-9.9-19.2-13.9-15.9-16.1-34.5-31.1-49.9-48.4-4.1-4.6-5.8-12.1-12-16.2-9.5-6.3-37.1-10.6-48.9-12.5-2.4-.4-5,1.2-7.4.8-4.8-.8-16.6-3.3-19.4-7.2-3.7-5.1,4-12.9-7.9-13.6-5.7-.4-13.6,11.2-23.1,11.4-5.9.1-3.7-2.9-5.6-4.2-1.9-1.2-19.8-1.6-21.3-.6-1.5.9-3.7,14.4-13.4,13.1v2.2c8.6,17.9,16.5,36.4,25.6,54.1,6.4,12.6,26.4,37.4,22.1,51.9-2.7,9-13.2,6.6-16.7-1-1.2-2.5,0-5.1-.8-7.4-5.3-17.1-12.1-34-22.9-48.5l-3.2,13.4c-5.4,4.2-15.2-3.5-14.3,2.3.2,1.5,5.9,16.2,6.9,18,3.5,6.7,18.3,14.2,11.5,23.2-1.1,1.5-7.2,2.9-9,2.5-3.2-.8-3.6-5.4-5.6-6.5-2.7-1.6-6.5-.9-9.2-2-10-3.9-24.1-44.1-29.1-55.5-3.1-7.1-4.2-13-6.6-18.3-1.9-4.3-7.7-7.8-9.9-13.3-1.4-3.5-2-11.8-3.7-13-2.2-1.6-5.2.8-7.4.5-3.1-.5-5.8-3.6-8.9-4.2-3-.6-28.4,6.7-32.4,8.4-8.3,3.7-9.1,16.7-21.9,17.9-14.1,1.4-34.8-.2-42.2-14.4-6.7-12.9,4.4-23.7,14-30.5,6-4.3,21.6-10.8,28.6-11.3,9.2-.6,9.6,7.6,12.2,9.5.5.4,8.6-1.9,12.2-1.6,5.3.5,8.2,3.7,14.9,3.6,32.2-.6,72.2-15.1,108.1-18.3,3-.3,5.9,1.5,7.9,1.2,2.4-.4,8.3-7.5,11-8.7,10.5-4.3,12,4.5,19.5,6.9,33.7,11,65-2.8,98.9.7,47.7,4.8,96,62.3,116.8,102.3,2.2,4.2,7.4,14.7,2.1,17.8-13.7,8.2-26.9-29.9-31.9-37.9-3.6-5.7-8.5-8.2-11.4-11.9-3.3-4.1-2.9-14.1-11.3-12.2ZM679.3,38.5c-14.5-7.7-27.9-15.5-44.8-16.6,4.5,15.6,25.1,17.1,39,18.2,1.8.2,6.2,1.2,5.8-1.6ZM463.5,38.4c-3.3.2-17.9-1.9-16.6,4.1l7.2,5.7,9.4-9.8Z"/>
      <path class="st0" d="M127.7,612.6l-14,1.5-14.2-5.7c7.3-5.2,19.7,3.9,28.2,4.2Z"/>
    </g>
    <g>
      <path class="st0" d="M682.2,322.1c.6,6.6-11,1.6-16.6,4.2-1.4.6-8.3,7.6-6.7,9.1,8.7,1.5,13-12.6,21.6-7.5,2.5,1.5,6.2,20.7,9.2,25.7,2.8,4.6,9.8,4,11.7,10,.4,28.6-14,59-3.7,86.5l65.7,4.9c3.2-9.4,1-19.4,1.6-29.1.6-9.2,3.1-20.6,2.5-29.8-.4-5.8-4.8-10-4.1-14.7.6-4.4,7.2-14.2,6.9-20.7,3-1.9,17,2.8,21,4.3,1.9.7,1.9,3.1,3.3,3.7,4.8,2.1,12.7,1,15.3,6.7l-11.4,1.8c.4,12.7-3.4,19.3-16.7,14.8-2.9,2.1-5.6,54.8-6.7,63l14.1-6.7c3.3,0,6.9,6.2,10.2,8.1,5.9,3.5,63.7,11,74.5,11.8,3.3.2,9.9.8,12.4-.8l20-30c-2.5-7.6.5-13.9,0-21.5-.7-9.6-4.4-37.5-6.6-46.2-1.2-4.5-15-5.7-3.4-21.9,5.7-8,15.3-13.8,23.2-4.9,11.1,12.5-.9,20-4.1,29.8-2.1,6.4.6,41.1,4.1,46.5,2.1,3.3,7.3,4.9,8.3,7.1,2.6,5.5,5.4,19,5.9,25.2l37.8,39.4c43.5,10,102,34.5,130.6,69.9,5.2,6.4,23.2,29.2,25.9,35.1,15.2,32.8-16.3,44.9-41.5,53.3-75.4,24.9-207.6,33.3-288.6,32.5-2.9,0-6.2-1.6-9.4-1l-.8-6.6-11,2.4.2,4.2c-9-3.7-19.2-3-29-1.6-119.5,17.3-245.1,24-365.2,11.3-36.9-3.9-72.8-11.7-109.5-16.5-18.1-2.4-38.7-6.8-56.5-8.1-51.1-3.8-169.1-13.5-198.2-62.6-11.9-20.1-11.3-32.5,5.9-48.7,3-2.8,29.6-17.3,25.3-21.5-7.6,3.7-16.6,4.9-24.4,7.9-9.2,3.6-15.5,12.8-25.4,15.3,6.4-13.1,18.8-21.1,31.6-27.3,36.2-17.7,78.2-21.7,116.3-33.1,8-2.4,14-15.7,14.8-23.5.7-6.4-3-16.4-2.9-23.1,0-6.3,4.4-14.5,4.5-18.2,0-3.6-3.4-7.3-3.1-11.6.3-3.6,3.7-6.3,3.4-11.7-.3-7.6-7.2-17.1-9.3-24-6.9-22.7,2.3-40.2,27.4-39.9-1.5,6.6,4,10,5.8,14.9,6.1,16.2-3.5,14.9-9.5,25.4-6.3,11.1-3.6,26.7.5,38.4.7,2.1,2.3,7.2,4.9,7.6,1.7-30.3,34-6.7,29.8,15.7-1,5.6-13.1,23.1-12.8,26.3.2,2.3,3.4,7.7,4.5,10.3,6.4,4.3,61.5-8.9,72.9-9.4l-3.2-55.5,4.8-36.1c-1.1-4.3-11.2-6.6-13.5-11.5-4.1-8.9,1.5-35.1,11.6-37.5,9.7-2.4,20.6,15.4,25,22.4-9.4,20.7-15.8,44.1-14.6,67,23.1-13,10.9,29.9,11.5,42.3,0,1.7,1,7.4,2.8,7.6l76.2-10.1,108.8-7.6,28.1-58.1-3.3-1.6c5.2-4.4,7.1-10.9,15-8.4,14.5,4.4,4.1,28.5,6.6,30.8l8.1-2.7c-1.1-13.7,3.5-27.1.2-40.4-5.1.9-8.9,5.8-14.5,6.3-12.2,1.1-23-6.2-23.1-19-.1-23.9,34.4-47.8,50.9-24.6,9.7,13.6-3.3,18-3.3,19.9,0,.6,4,2.9,4.7,5.4,3.9,13-5.4,51.6-6.1,67.9-.2,3.7-.6,19,.5,20.6l106.1,1.3,12.7-33c-5.6.2-11.4-.6-17,.4-9.5,1.6-22,15.5-26.2-1.2,3.1-3,6.9-13.6,8.9-15.4,8.2-7.5,33.9-3.3,40.8-13.1,10.5-14.9,2.1-29.4-3.2-43.7-44.7,9.1-21.4-34.4,8.4-23.3ZM544.4,352c4-11.4-1.2-18.1-13.4-14.2-10,3.2-22,34.4-3.2,26.7l1.9-11.4,4.7-3.7,10,2.7ZM504.6,453.2c12.7,1.5,24.1,2.3,28.8-12,2.3-7.1-2.5-15.8-8.9-18.7-9.8-4.4-21.5,29.2-19.9,30.8ZM933.5,470.9c-3.3-4.3-5.3-10.2-10.6-12.7-.3,4.8-5.1,13.8-1.9,17.6l20.1,5.7c2.5-2.2-6.8-9.4-7.7-10.6ZM653.8,472.9c1-.9,3-8.4-.8-9.5-3-.9-18,.1-22.9-.2-12.1-1-15-.3-26.6,0-13.5.5-32.2-2.6-44.5-1.3-2.6.3-6,1.7-7.8,3.8,5.3-.3,9.3,6.1,12.8,7.1,4.6,1.3,10.2-.6,14.3.4,1.3.3,1.1,3.2,2.2,3.4,2.2.3,6.3-1.8,9.7-1.8,9.2-.1,60.3,1,63.7-1.8ZM524.5,463.2l-25.5,3.3c-4.6,10.6,14.4,5.6,21.1,6.7l4.4-10ZM337,479.8l143.6-6.6c2.2-.1,4.6-1.8,4.1-4.1-1.1-5.1-16.7-1.4-20.5-1.5-15-.5-15.7,0-30.4,1.7-24.7,2.9-51.7,2.5-77.5,5.8-4.5.6-9.9,1.3-14.4,2.3-1.8.4-5.4.1-4.9,2.5ZM747,469.9l-51.4-5c-6.6,15.8,24.7,4,33.6,7.6l17.8-2.6ZM788.5,481.5c.7,3.2,3.3,2.9,5.8,3.3,19.2,3.1,40.4,4.8,59.6,6.7,8.1.8,34.4,8.7,23-6.5-16-2.1-32.9-6.8-49.2-6.3-4.3.1-9.1,2.5-13.6,2.7-8.6.4-17.1-1.2-25.7,0ZM647.4,484.8l-88.5,3.7c-12.1,7.5-2.2,15.2-1.6,20.6,1.5,12.6-1.7,33.1-1.2,46.3.5,14.4,5.1,27.3,7.2,40.6,1.6,10.2,1.3,20.8,4.5,30.9-.3,8.6-11.4,12.9-18,8.7-5-3.1-7.8-40.3-8.6-48.7-.3-3.6,1.3-6.8,1-9.6-2.1-20.3-6.5-40.4-7.7-60.9-3-.7-3.3.9-4.7,2.8-14.3,18.7-18.4,47.7-31.9,62.7-5.2,5.8-13.5,8.7-16.3-.3-2.8-9.2,14.1-34,18.3-44.2,5.3-13,8.7-28.9,14.3-42.2l-2.3-3.5-195.5,15c-2.8.9-3.9,4.6-4.3,7.3-2.3,14.3,2.1,34.9,5.7,48.9,1.1,4.2,6.2,8,1.5,13.4-15.3,1.8-9.8-10-16.6-16.6-16.8,16-19.4-7-20.5-20.8-.7-9,.6-18.2-.2-27.2-.9-1.6-14.6-.2-17.1,0-5.4.6-44.1,5.8-45.9,7.2-2.8,2.1-.9,7.7-2.4,10.9-1.1,2.3-5.4,2.5-5.9,4.4-.3,1.3,0,24,.4,25.9,3.2,15.3,17.9,39.5,29.5,50.2,5.4,5,11.6,3.4,10.1,14.6-15.3,8-27.6-18.3-37.4-27.1-6,4.3-9.4,11.4-16.6,3.3,0-21,2.6-39.1-5.6-59.1-.8-6.6-1.1-8.5,3.3-13l-2.9-5.8-7.3,2.7c.2,7.1,0,14.2,0,21.3.5,21.5,1.4,42.9,3.5,64.6.5,5.4,7.2,19.5-1.3,22.4-10.2,3.4-14.1-8.8-12.1-17l-3.4-1.9,3.2-1.5c-1.5-6-5.5-12.8-6.1-18.8-.3-3,1.5-5.8.9-9.1-1.1-6.1-11.3-53.8-14.1-54.5-11.3-2.3-94.7,20.4-95,25.8,3.1,2.9,3.5,9.4,5.4,12,3.4,4.7,28.2,19.6,34.5,22.7,10.7,5.2,24.2,6.8,31.3,16-25.4-1.4-52.4-13.9-70.6-31.5-3.3-3.2-11-14-13.6-14.7-7.7-2.1-24.6,10.8-23.7,20.3.7,7.5,25.5,23.6,32.8,27.1,5.8,2.8,15.8,4.1,20.8,7.4,2.6,1.7,3.8,5.7,5.5,6,3.2.7,14.6-.4,22,1.3,40.5,9.5,80.4,22.9,121.4,31.4,28.7,5.9,56.5,8.5,85.1,12.9,6.3,1,14.7,4.9,19.4,5.3,4,.4,16.4-4.3,26-4.2,51.1.6,102.9,5.2,154.5,6.4,79.3,1.8,169.3,6.6,247-4.8,59.5-8.7,186.4-32.3,230.1-72,17.8-16.1,20.3-40,6.4-59.6-15-21.1-51.1-20.7-74.5-26-1,1.1-.4,25.9,0,29.1.8,5.9,5.4,17.3,5,21.6-.4,4.3-5.5,3.9-6.5,6.9-1.2,3.6.9,8.5-1.1,12.2l-4.2,2.6c-14.8-1.3-10-34.4-11.9-44.6-.4-2.3-7.8-17.8-8.7-17.8-10.1,8.7-9,49.5-28.7,40.2-13.3-6.3,3.2-19.8,5.8-26.6,3.3-8.5,2.7-22.7,5.4-31.9l-90.3-11.4-4.5,15.2c4.6,3.2,10.5,4.9,14.2,9.5,2.6,3.3,16.5,30.9,17.9,35.2,1.7,5.6,1.1,11.4,3,16.9,3,8.6,19,43.9,18.2,49.8-.2,1.3-.7,2.5-1.6,3.6-3.2,4-9.9,3-12.7-.8-9.5-14.1-9.4-42.9-17.5-55.5-1.3-2-2.1-3.2-4.7-2.7-.8,8-10.4,6.5-14.9,2.4-5.6-5-7.1-21.8-15-25.7-2.5,13-1.7,25.5-1.6,39.1,0,3.1-1.2,6.1-1.1,8.5.2,8.7,8.6,34-6.1,31.8-8.9-1.3-6.1-8.8-7.2-13.1-2.9-11.7-5.6-21.5-5.3-33.9.3-11.1,1.9-21.5,11-28.5l4.5-52.1c-3.3-5.5-23.3-2.8-30-3.3-7.4-.6-16.4-4.5-21.7-5-4.4-.4-8.9,2.8-14,0-.4,4.3,1.7,8.2,1.8,12.5.7,22.6.3,38.6-2.7,61.3-.7,5.5,2.6,12.5-4.1,18.4-6.8,2.8-10.8-2.4-14.1-7.5-1.2,6.2-11.8,7.3-13.8,2.2l2.2-85.1c-2.6,2.1-4.2,4.7-5.6,7.6-7.2,14.5-10.1,45.7-11.8,62.9-.6,6.2,3.7,21.6-5.8,20.9-11.9-1-11.3-17.1-10.8-25.9.6-10.7,5.7-30.2,8.7-41,1.3-4.5,10.4-23.6,7.8-26.2ZM345.3,491.4h-34c-2.5,0-6.7,1.4-5.8,5h9.2c0,0,30.6-5,30.6-5ZM280.5,499.7l-5.8-5c-12.2.9-24.4,3.8-36.5,5-9.3.9-18.3-1.5-28.1,1.7-4.1,8.3,7.7,6.9,13.1,6.6,19-1.2,38.3-6.8,57.3-8.3ZM685.5,498.1c-1.6-1.7-3.2-.8-3.1,2.3.6,11.6-2.3,22.6-1.9,34.2l6.5-17.6-1.5-19ZM1070.6,547.9c.8-3.6-1.8-3.8-3.8-5.3-25.8-18.7-57.1-30.5-87.4-39.5,0,4.4-1.2,9.9,3.4,12.3,29.3,10.7,60.5,17.5,87.9,32.5ZM154.4,509.7c-14.2,1.9-27.9,6.2-41.4,10.8-10.4,3.6-26,8.4-33.2,15.7l74.7-16.6v-9.9ZM1066.8,555.1c-20.3-10.2-44.8-13.8-64.2-25.5.9,8,6.3,14.8,7.9,22.8,9.6,48.1-37.4,69.5-74.3,84.2-40.6,16.2-82.6,21.5-123.7,34.1-2.5.8-5-1.9-4.1,3.3,4.9.7,9.4-1.6,14.1-1.8,11.4-.3,90.2-1.9,93.5-5.3.8-.8-.2-3.4,1.4-4.7,5.6-4.4,21.1-4,27.8-5.1,31.1-5,62.1-10,92.3-18.9,21.3-6.3,91.2-28.4,61.4-61.4-4.9-5.5-25.8-18.7-32.1-21.8ZM786.8,533l-3.3.8c1.4,9.7,5.3,18,13.3,24-.9-9.2-5-17.4-10-24.9ZM1119.8,620.3c3.7-7.2,1.4-21-7.6-22.6-2.4,21.4-26.4,31.4-44.4,37.8-45.5,16.1-85.5,19.9-132.2,27.2-2.2.3-9,.6-9.4,3.1,41.8-2.6,85.9-6.8,126.5-17.1,12.7-3.2,61.7-17.8,67-28.3ZM156,649.1c-14.9-7-31.1-7.6-46.8-12.1-20.1-5.8-40-13.3-59.4-21.1-.7,3.3,1.5,4,3.8,5.3,5,3,20.9,9.1,27,11.2,20.3,7,44.7,9.8,63.2,19.6l12.3-2.9ZM541.1,685.7c-8.7-.5-17-2.9-25.7-3.3-24.8-1-51.2.4-76.3,0-3.9,0-7.8.3-11.7-.1-2.7-.3-7-6.2-9.2-.8-1.5,3.8,3.9,2.3,5.8,2.4,23.2,1.7,46.6,3.1,69.6,3.4,13.6.2,28.1.5,41.6,0,2,0,6.2,1.3,5.8-1.6Z"/>
      <path class="st0" d="M701.2,66.9c-3.8,11.2-15.4,3.4-23.5,5.5,2.1,3,7.3,4,9.5,6.3,1.9,2.1,13.3,18.7,14.4,21.3,2.3,5.4.8,10.4,1.9,13,2.1,5.2,19.1,19.6,11.7,25.1-10.5,7.9-15.2-9.9-19.2-13.9-15.9-16.1-34.5-31.1-49.9-48.4-4.1-4.6-5.8-12.1-12-16.2-9.5-6.3-37.1-10.6-48.9-12.5-2.4-.4-5,1.2-7.4.8-4.8-.8-16.6-3.3-19.4-7.2-3.7-5.1,4-12.9-7.9-13.6-5.7-.4-13.6,11.2-23.1,11.4-5.9.1-3.7-2.9-5.6-4.2-1.9-1.2-19.8-1.6-21.3-.6-1.5.9-3.7,14.4-13.4,13.1v2.2c8.6,17.9,16.5,36.4,25.6,54.1,6.4,12.6,26.4,37.4,22.1,51.9-2.7,9-13.2,6.6-16.7-1-1.2-2.5,0-5.1-.8-7.4-5.3-17.1-12.1-34-22.9-48.5l-3.2,13.4c-5.4,4.2-15.2-3.5-14.3,2.3.2,1.5,5.9,16.2,6.9,18,3.5,6.7,18.3,14.2,11.5,23.2-1.1,1.5-7.2,2.9-9,2.5-3.2-.8-3.6-5.4-5.6-6.5-2.7-1.6-6.5-.9-9.2-2-10-3.9-24.1-44.1-29.1-55.5-3.1-7.1-4.2-13-6.6-18.3-1.9-4.3-7.7-7.8-9.9-13.3-1.4-3.5-2-11.8-3.7-13-2.2-1.6-5.2.8-7.4.5-3.1-.5-5.8-3.6-8.9-4.2-3-.6-28.4,6.7-32.4,8.4-8.3,3.7-9.1,16.7-21.9,17.9-14.1,1.4-34.8-.2-42.2-14.4-6.7-12.9,4.4-23.7,14-30.5,6-4.3,21.6-10.8,28.6-11.3,9.2-.6,9.6,7.6,12.2,9.5.5.4,8.6-1.9,12.2-1.6,5.3.5,8.2,3.7,14.9,3.6,32.2-.6,72.2-15.1,108.1-18.3,3-.3,5.9,1.5,7.9,1.2,2.4-.4,8.3-7.5,11-8.7,10.5-4.3,12,4.5,19.5,6.9,33.7,11,65-2.8,98.9.7,47.7,4.8,96,62.3,116.8,102.3,2.2,4.2,7.4,14.7,2.1,17.8-13.7,8.2-26.9-29.9-31.9-37.9-3.6-5.7-8.5-8.2-11.4-11.9-3.3-4.1-2.9-14.1-11.3-12.2ZM679.3,38.5c-14.5-7.7-27.9-15.5-44.8-16.6,4.5,15.6,25.1,17.1,39,18.2,1.8.2,6.2,1.2,5.8-1.6ZM463.5,38.4c-3.3.2-17.9-1.9-16.6,4.1l7.2,5.7,9.4-9.8Z"/>
      <path class="st0" d="M127.7,612.6l-14,1.5-14.2-5.7c7.3-5.2,19.7,3.9,28.2,4.2Z"/>
    </g>
  </g>
</svg>